<svg width="100vw" height="100vh" viewBox="0 0 1920 1080" fill="none" xmlns="http://www.w3.org/2000/svg">
  <circle cx="100" cy="200" r="1.5" fill="white" opacity="0.8"/>
  <circle cx="400" cy="800" r="2" fill="white" opacity="0.7"/>
  <circle cx="1200" cy="300" r="1" fill="white" opacity="0.9"/>
  <circle cx="1800" cy="900" r="2.5" fill="white" opacity="0.8"/>
  <circle cx="900" cy="500" r="1.2" fill="white" opacity="0.7"/>
  <circle cx="1500" cy="200" r="1.8" fill="white" opacity="0.8"/>
  <circle cx="300" cy="1000" r="1.3" fill="white" opacity="0.6"/>
  <circle cx="1700" cy="100" r="2" fill="white" opacity="0.7"/>
  <circle cx="800" cy="900" r="1.5" fill="white" opacity="0.8"/>
  <circle cx="600" cy="300" r="1.7" fill="white" opacity="0.7"/>
  <circle cx="1100" cy="700" r="2.2" fill="white" opacity="0.8"/>
  <circle cx="1600" cy="400" r="1.1" fill="white" opacity="0.6"/>
  <circle cx="200" cy="600" r="1.9" fill="white" opacity="0.7"/>
  <circle cx="1300" cy="1000" r="2.3" fill="white" opacity="0.8"/>
  <circle cx="1000" cy="100" r="1.4" fill="white" opacity="0.7"/>
  <circle cx="500" cy="700" r="2.1" fill="white" opacity="0.8"/>
  <circle cx="1400" cy="600" r="1.6" fill="white" opacity="0.7"/>
  <circle cx="700" cy="200" r="1.2" fill="white" opacity="0.6"/>
  <circle cx="300" cy="400" r="2.4" fill="white" opacity="0.8"/>
  <circle cx="1700" cy="800" r="1.7" fill="white" opacity="0.7"/>
</svg>
